<svg width="110" height="110" viewBox="0 0 110 110" fill="none" xmlns="http://www.w3.org/2000/svg">
<path fill-rule="evenodd" clip-rule="evenodd" d="M54.9764 0.00786657C49.6415 -0.0667489 44.345 0.920833 39.3946 2.91323C34.4441 4.90563 29.9386 7.86312 26.1396 11.6139C22.3406 15.3646 19.324 19.8338 17.265 24.7618C15.206 29.6898 14.1457 34.9783 14.1457 40.3201C14.1457 45.6619 15.206 50.9504 17.265 55.8784C19.324 60.8064 22.3406 65.2756 26.1396 69.0264C29.9386 72.7771 34.4441 75.7346 39.3946 77.727C44.345 79.7194 49.6415 80.707 54.9764 80.6324C65.6562 80.6324 75.8986 76.3848 83.4504 68.824C91.0021 61.2633 95.2447 51.0087 95.2447 40.3162C95.2447 29.6237 91.0021 19.3691 83.4504 11.8083C75.8986 4.24759 65.6562 0.00786657 54.9764 0.00786657ZM56.5714 19.0686L61.9379 29.8772C62.0544 30.1519 62.2431 30.3897 62.4838 30.5657C62.7245 30.7416 63.0083 30.8489 63.3051 30.8763L75.2166 32.6856C75.5577 32.7293 75.8793 32.8695 76.1436 33.0897C76.4079 33.31 76.6039 33.6011 76.7087 33.929C76.8135 34.257 76.8226 34.608 76.7351 34.9409C76.6475 35.2739 76.4669 35.5749 76.2145 35.8086L67.4301 44.1787C67.298 44.4283 67.229 44.7065 67.229 44.9889C67.229 45.2714 67.298 45.5496 67.4301 45.7992L69.1116 57.662C69.1823 58.0036 69.1529 58.3583 69.0269 58.6836C68.9009 59.0088 68.6837 59.2907 68.4014 59.4952C68.1191 59.6996 67.7838 59.8181 67.4358 59.8362C67.0878 59.8543 66.7421 59.7713 66.4401 59.5972L55.8329 53.9804C55.5577 53.8555 55.259 53.7909 54.9568 53.7909C54.6546 53.7909 54.3559 53.8555 54.0807 53.9804L43.4735 59.5972C43.1715 59.7713 42.8258 59.8543 42.4778 59.8362C42.1298 59.8181 41.7945 59.6996 41.5122 59.4952C41.2299 59.2907 41.0127 59.0088 40.8867 58.6836C40.7607 58.3583 40.7313 58.0036 40.802 57.662L42.7899 45.7992C42.8765 45.5242 42.893 45.232 42.8382 44.949C42.7833 44.666 42.6586 44.4012 42.4756 44.1787L33.6834 35.7457C33.4472 35.5096 33.281 35.2127 33.2031 34.8878C33.1251 34.563 33.1386 34.2228 33.2419 33.9051C33.3452 33.5874 33.5344 33.3046 33.7885 33.088C34.0425 32.8713 34.3515 32.7293 34.6812 32.6777L46.6006 30.9392C46.8974 30.9118 47.1812 30.8045 47.4219 30.6286C47.6626 30.4527 47.8513 30.2148 47.9678 29.9402L53.3343 19.1315C53.4771 18.8247 53.7031 18.5642 53.9864 18.3796C54.2698 18.1949 54.5992 18.0936 54.9372 18.087C55.2752 18.0805 55.6083 18.169 55.8986 18.3425C56.1888 18.516 56.4247 18.7676 56.5793 19.0686H56.5714ZM96.6432 68.1403C89.8635 78.2924 79.6292 85.6313 67.8465 88.79L78.9409 108.032C79.3291 108.705 79.908 109.249 80.6046 109.593C81.3012 109.938 82.0842 110.068 82.8545 109.967C83.6248 109.866 84.3479 109.538 84.9324 109.026C85.5169 108.513 85.9365 107.839 86.1381 107.088L90.1453 92.149L105.058 96.1531C105.809 96.3536 106.602 96.327 107.337 96.0765C108.072 95.8261 108.717 95.3631 109.189 94.7461C109.662 94.129 109.941 93.3856 109.992 92.6098C110.042 91.8339 109.862 91.0604 109.474 90.3869L96.6432 68.1403ZM42.1456 88.7979C30.3557 85.6638 20.1118 78.3332 13.3332 68.1796L0.525929 90.3869C0.137764 91.0604 -0.0423326 91.8339 0.00839021 92.6098C0.059113 93.3856 0.33838 94.129 0.81091 94.7461C1.28344 95.3631 1.92803 95.8261 2.66325 96.0765C3.39848 96.327 4.19134 96.3536 4.94168 96.1531L19.8625 92.149L23.8619 107.088C24.0635 107.839 24.4831 108.513 25.0676 109.026C25.6521 109.538 26.3752 109.866 27.1455 109.967C27.9158 110.068 28.6988 109.938 29.3954 109.593C30.092 109.249 30.6709 108.705 31.0591 108.032L42.1456 88.7979Z" fill="white"/>
</svg>
