<svg width="101" height="110" viewBox="0 0 101 110" fill="none" xmlns="http://www.w3.org/2000/svg">
<path d="M27.3741 0.106857C28.231 -2.57577e-07 29.1798 0 30.2816 0H70.7184C71.8202 0 72.769 -2.57577e-07 73.6259 0.106857C76.6679 0.49549 79.4967 1.91515 81.6643 4.141C83.8319 6.36686 85.2144 9.27168 85.5929 12.3954L85.6113 12.5714H90.545C91.8427 12.5589 94.689 12.5337 97.0396 14.1491C100.082 16.2297 101 19.8063 101 23.5714C101 40.7063 92.1059 52.1463 80.751 58.5011C74.4156 70.3434 62.7118 78.5714 50.5 78.5714C41.2019 78.5714 32.3812 73.4046 26.0335 66.2577C23.9243 63.8948 22.0729 61.3022 20.5122 58.5263C9.16345 52.2029 0 40.7754 0 23.5714C0 19.8 0.918181 16.2297 3.9543 14.1491C6.31097 12.5337 9.15733 12.5589 10.455 12.5714H15.3887L15.4071 12.3954C15.7856 9.27168 17.1681 6.36686 19.3357 4.141C21.5033 1.91515 24.3321 0.49549 27.3741 0.106857ZM91.708 22.0314C91.2352 22.0021 90.7615 21.9917 90.2879 22H85.6786L85.4827 42.68C89.3881 37.8526 91.8182 31.5543 91.8182 23.5714C91.8182 22.8297 91.7631 22.3394 91.708 22.0314ZM9.18182 23.5714C9.18182 31.3469 11.5568 37.5257 15.3642 42.3154C14.9602 37.6263 15.0704 32.8617 15.1806 28.1223C15.2377 26.069 15.2724 24.0282 15.2847 22H10.7121C10.0449 22 9.62255 22 9.29812 22.0314C9.21209 22.5398 9.17315 23.0555 9.18182 23.5714ZM51.9079 20.7743C51.7903 20.4908 51.5941 20.2491 51.3438 20.0792C51.0935 19.9093 50.8001 19.8187 50.5 19.8187C50.1999 19.8187 49.9065 19.9093 49.6562 20.0792C49.4059 20.2491 49.2097 20.4908 49.0921 20.7743L46.0009 28.3926C45.8931 28.6585 45.7161 28.8888 45.4894 29.0584C45.2627 29.228 44.995 29.3303 44.7155 29.3543L36.7028 30.0143C36.4014 30.0388 36.1138 30.1544 35.8764 30.3466C35.6389 30.5388 35.4622 30.7989 35.3685 31.0941C35.2749 31.3893 35.2685 31.7064 35.3502 32.0053C35.4319 32.3042 35.5979 32.5716 35.8275 32.7737L41.9303 38.1417C42.1436 38.3302 42.3022 38.5754 42.3886 38.8504C42.475 39.1255 42.4858 39.4196 42.42 39.7006L40.5592 47.7211C40.4874 48.0238 40.5049 48.3416 40.6094 48.634C40.7138 48.9265 40.9006 49.1804 41.146 49.3637C41.3913 49.5469 41.6841 49.6511 41.9873 49.6631C42.2904 49.675 42.5902 49.5942 42.8485 49.4309L49.7042 45.1314C49.944 44.9815 50.2193 44.9023 50.5 44.9023C50.7807 44.9023 51.056 44.9815 51.2958 45.1314L58.1515 49.4309C58.4098 49.5942 58.7096 49.675 59.0127 49.6631C59.3159 49.6511 59.6087 49.5469 59.854 49.3637C60.0994 49.1804 60.2862 48.9265 60.3906 48.634C60.4951 48.3416 60.5126 48.0238 60.4408 47.7211L58.5739 39.7006C58.508 39.4196 58.5189 39.1255 58.6053 38.8504C58.6917 38.5754 58.8503 38.3302 59.0636 38.1417L65.1725 32.7737C65.4042 32.5721 65.5721 32.3043 65.6551 32.0043C65.738 31.7044 65.7322 31.3859 65.6384 31.0893C65.5445 30.7928 65.3669 30.5316 65.128 30.3391C64.8892 30.1465 64.6 30.0313 64.2972 30.008L56.2907 29.3543C56.0101 29.3315 55.741 29.2296 55.5132 29.0599C55.2853 28.8903 55.1074 28.6593 54.9991 28.3926L51.9079 20.7743ZM50.5 81.7143C51.7176 81.7143 52.8853 82.211 53.7463 83.0951C54.6072 83.9792 55.0909 85.1783 55.0909 86.4286V100.571H74.9848C76.2024 100.571 77.3701 101.068 78.2311 101.952C79.0921 102.836 79.5758 104.035 79.5758 105.286C79.5758 106.536 79.0921 107.735 78.2311 108.619C77.3701 109.503 76.2024 110 74.9848 110H26.0152C24.7976 110 23.6299 109.503 22.7689 108.619C21.9079 107.735 21.4242 106.536 21.4242 105.286C21.4242 104.035 21.9079 102.836 22.7689 101.952C23.6299 101.068 24.7976 100.571 26.0152 100.571H45.9091V86.4286C45.9091 85.1783 46.3928 83.9792 47.2537 83.0951C48.1147 82.211 49.2824 81.7143 50.5 81.7143Z" fill="white"/>
</svg>
