<svg width="16" height="16" viewBox="0 0 16 16" fill="none" xmlns="http://www.w3.org/2000/svg">
<path d="M7.5286 12.7993C7.71302 12.7994 7.89102 12.8671 8.02884 12.9896C8.16665 13.1121 8.2547 13.281 8.27628 13.4641L8.28155 13.5522V14.3051C8.28133 14.497 8.20785 14.6816 8.07611 14.8212C7.94437 14.9607 7.76431 15.0447 7.57273 15.0559C7.38115 15.0672 7.1925 15.0048 7.04534 14.8817C6.89817 14.7585 6.8036 14.5838 6.78093 14.3932L6.77566 14.3051V13.5522C6.77566 13.3526 6.85499 13.1611 6.99619 13.0199C7.1374 12.8787 7.32891 12.7993 7.5286 12.7993ZM12.2819 11.2258L12.3527 11.2883L12.8798 11.8153C13.0148 11.9508 13.0932 12.1326 13.0991 12.3238C13.1049 12.515 13.0377 12.7012 12.9112 12.8447C12.7847 12.9882 12.6083 13.0781 12.4179 13.0963C12.2274 13.1144 12.0372 13.0594 11.8859 12.9424L11.8151 12.8799L11.2881 12.3529C11.1581 12.2232 11.0801 12.0505 11.0685 11.8672C11.057 11.684 11.1128 11.5029 11.2255 11.358C11.3382 11.213 11.4999 11.1142 11.6803 11.0802C11.8607 11.0461 12.0474 11.0792 12.2051 11.1731L12.2819 11.2258ZM3.76916 11.2883C3.89879 11.4179 3.97667 11.5904 3.98818 11.7734C3.99968 11.9563 3.94403 12.1372 3.83165 12.2821L3.76916 12.3529L3.24209 12.8799C3.1066 13.0149 2.92478 13.0933 2.73357 13.0992C2.54236 13.105 2.3561 13.0378 2.21261 12.9113C2.06913 12.7848 1.97918 12.6084 1.96104 12.418C1.9429 12.2276 1.99792 12.0374 2.11494 11.8861L2.17743 11.8153L2.70449 11.2883C2.84569 11.1471 3.03717 11.0678 3.23682 11.0678C3.43648 11.0678 3.62796 11.1471 3.76916 11.2883ZM1.50505 6.77612C1.69696 6.77633 1.88155 6.84981 2.0211 6.98155C2.16065 7.11328 2.24462 7.29333 2.25587 7.4849C2.26711 7.67647 2.20478 7.8651 2.08161 8.01226C1.95843 8.15941 1.78371 8.25399 1.59315 8.27665L1.50505 8.28192H0.75211C0.5602 8.28171 0.375613 8.20823 0.236066 8.07649C0.0965182 7.94476 0.0125419 7.76471 0.00129509 7.57314C-0.00995172 7.38157 0.0523798 7.19294 0.175554 7.04578C0.298728 6.89863 0.473448 6.80405 0.664015 6.78139L0.75211 6.77612H1.50505ZM14.3051 6.77612C14.497 6.77633 14.6816 6.84981 14.8211 6.98155C14.9607 7.11328 15.0447 7.29333 15.0559 7.4849C15.0672 7.67647 15.0048 7.8651 14.8817 8.01226C14.7585 8.15941 14.5838 8.25399 14.3932 8.27665L14.3051 8.28192H13.5522C13.3602 8.28171 13.1757 8.20823 13.0361 8.07649C12.8966 7.94476 12.8126 7.76471 12.8013 7.57314C12.7901 7.38157 12.8524 7.19294 12.9756 7.04578C13.0988 6.89863 13.2735 6.80405 13.4641 6.78139L13.5522 6.77612H14.3051ZM3.17132 2.11565L3.24209 2.17815L3.76916 2.70518C3.90419 2.84067 3.98259 3.02248 3.98843 3.21368C3.99427 3.40487 3.92711 3.59113 3.80059 3.7346C3.67407 3.87808 3.49768 3.96802 3.30724 3.98616C3.11681 4.0043 2.9266 3.94928 2.77527 3.83227L2.70449 3.76978L2.17743 3.24275C2.04799 3.11301 1.97032 2.94051 1.95898 2.7576C1.94763 2.57469 2.0034 2.39392 2.11581 2.24919C2.22823 2.10445 2.38958 2.00568 2.56962 1.97139C2.74965 1.93711 2.93602 1.96966 3.09376 2.06295L3.17132 2.11565ZM12.8798 2.17815C13.0094 2.30779 13.0873 2.48028 13.0988 2.66325C13.1103 2.84623 13.0546 3.02711 12.9423 3.17198L12.8798 3.24275L12.3527 3.76978C12.2172 3.90481 12.0354 3.98321 11.8442 3.98905C11.653 3.99489 11.4667 3.92773 11.3232 3.80122C11.1797 3.6747 11.0898 3.49832 11.0717 3.30789C11.0535 3.11747 11.1085 2.92728 11.2256 2.77595L11.2881 2.70518L11.8151 2.17815C11.9563 2.037 12.1478 1.95771 12.3474 1.95771C12.5471 1.95771 12.7386 2.037 12.8798 2.17815ZM7.5286 0C7.71302 2.43267e-05 7.89102 0.0677282 8.02884 0.19027C8.16665 0.312812 8.2547 0.481668 8.27628 0.664812L8.28155 0.752902V1.5058C8.28133 1.6977 8.20785 1.88228 8.07611 2.02182C7.94437 2.16136 7.76431 2.24533 7.57273 2.25658C7.38115 2.26782 7.1925 2.2055 7.04534 2.08233C6.89817 1.95916 6.8036 1.78445 6.78093 1.59389L6.77566 1.5058V0.752902C6.77566 0.55322 6.85499 0.361716 6.99619 0.22052C7.1374 0.0793233 7.32891 0 7.5286 0ZM7.5286 3.76451C8.26624 3.76447 8.98765 3.98111 9.60321 4.38754C10.2188 4.79396 10.7014 5.37225 10.9911 6.05059C11.2808 6.72893 11.3648 7.47742 11.2327 8.2031C11.1006 8.92878 10.7582 9.59967 10.2481 10.1324C9.73798 10.6652 9.08256 11.0364 8.36327 11.1999C7.64397 11.3634 6.89249 11.312 6.20217 11.052C5.51184 10.7921 4.91309 10.3351 4.48028 9.73786C4.04747 9.14057 3.79966 8.42931 3.76765 7.6924L3.76388 7.52902L3.76765 7.36564C3.80975 6.39647 4.22439 5.48096 4.92509 4.81003C5.62579 4.13911 6.55846 3.76457 7.5286 3.76451Z" fill="#2F2F2F"/>
</svg>
