<svg width="133" height="137" viewBox="0 0 133 137" fill="none" xmlns="http://www.w3.org/2000/svg">
<path fill-rule="evenodd" clip-rule="evenodd" d="M95.2073 54.906L69.3837 75.2543V124.377C69.3837 126.485 68.1044 128.391 66.1458 129.174L47.5491 136.63C45.959 137.268 44.1522 137.072 42.7427 136.109C41.3262 135.152 40.4732 133.551 40.4732 131.833V75.2533L2.95611 45.2178C1.09145 43.725 0 41.457 0 39.0584V24.493C0 23.1162 0.542062 21.8119 1.51055 20.8408C2.47903 19.8697 3.78725 19.319 5.15328 19.319H72.448C71.7614 20.9784 71.3278 22.8988 71.3278 25.1161C71.3278 35.4278 80.7741 39.3698 80.7741 39.3698C80.7741 39.3698 85.8839 41.5146 89.7 43.4133C91.5935 47.2466 93.7258 52.3626 93.7258 52.3626C93.7258 52.3626 94.1955 53.4639 95.2073 54.906ZM98.1851 15.3261C98.4019 14.9783 99.2403 13.5942 99.8113 12.4565C101.907 8.28255 104.394 2.36949 104.394 2.36949C104.993 0.934699 106.396 0 107.942 0C109.503 0 110.898 0.934791 111.505 2.36949C111.505 2.36949 113.977 8.28255 116.081 12.4565C116.652 13.5941 117.49 14.9783 117.7 15.3261C118.061 15.5507 119.441 16.3913 120.576 16.9638C124.732 19.0652 130.637 21.558 130.637 21.558C132.075 22.1595 133 23.5652 133 25.1161C133 26.6741 132.075 28.0799 130.637 28.6814C130.637 28.6814 124.732 31.1668 120.576 33.2756C119.441 33.8481 118.061 34.6887 117.714 34.9061C117.49 35.2612 116.659 36.6452 116.081 37.7757C113.977 41.9496 111.505 47.8771 111.505 47.8771C110.898 49.3119 109.504 50.2394 107.942 50.2394C106.396 50.2394 104.993 49.3046 104.394 47.8771C104.394 47.8771 101.907 41.9496 99.8113 37.7829C99.2403 36.6525 98.4019 35.2611 98.1851 34.9061C97.8382 34.6887 96.4577 33.8554 95.3158 33.2756C91.16 31.167 85.2479 28.6814 85.2479 28.6814C83.8241 28.0799 82.899 26.6742 82.899 25.1161C82.899 23.5654 83.8242 22.1595 85.2479 21.558C85.2479 21.558 91.16 19.0652 95.3158 16.9638C96.4577 16.3913 97.8382 15.5507 98.1851 15.3261Z" fill="white"/>
</svg>
