<svg width="110" height="110" viewBox="0 0 110 110" fill="none" xmlns="http://www.w3.org/2000/svg">
<path d="M72.8868 30.6475C71.3706 30.6483 69.9016 31.1748 68.7301 32.1373C67.5586 33.0998 66.757 34.4387 66.462 35.9259C66.1669 37.4131 66.3967 38.9566 67.112 40.2934C67.8274 41.6302 68.9842 42.6777 70.3852 43.2572C71.7863 43.8368 73.345 43.9126 74.7957 43.4719C76.2464 43.0311 77.4994 42.101 78.3412 40.8399C79.183 39.5789 79.5615 38.065 79.4123 36.5562C79.2631 35.0473 78.5953 33.6369 77.5228 32.5652C76.9146 31.9558 76.1919 31.4726 75.3963 31.1435C74.6007 30.8144 73.7478 30.6458 72.8868 30.6475Z" fill="white"/>
<path d="M109.374 4.43408C109.373 4.42675 109.373 4.4193 109.374 4.41198C109.166 3.50176 108.708 2.66769 108.052 2.00386C107.395 1.34003 106.566 0.872858 105.658 0.655062C98.3411 -1.13009 86.8297 0.772927 74.0734 5.88036C61.2164 11.0369 49.1697 18.649 41.0273 26.8061C38.4176 29.4023 35.993 32.1781 33.7713 35.1131C28.2882 34.8675 23.4582 35.6484 19.3894 37.4237C5.21137 43.6631 1.16226 59.6312 0.0842922 66.1874C-0.0716923 67.119 -0.0106162 68.0739 0.262768 68.978C0.536152 69.8821 1.01447 70.7109 1.6605 71.4C2.30652 72.089 3.10283 72.6197 3.98745 72.9507C4.87207 73.2817 5.82114 73.4041 6.76079 73.3084H6.79272L22.5865 71.5846C22.6061 71.7859 22.6282 71.9701 22.6454 72.1395C22.8483 74.0641 23.7065 75.8604 25.0764 77.2273L32.7842 84.9401C34.1491 86.3118 35.945 87.1712 37.8695 87.3735L38.3974 87.4299L36.6786 103.204V103.236C36.5907 104.086 36.6811 104.944 36.944 105.757C37.2069 106.569 37.6364 107.318 38.2052 107.955C38.7739 108.592 39.4694 109.104 40.247 109.457C41.0247 109.81 41.8675 109.997 42.7216 110.006C43.063 110.006 43.4038 109.978 43.7406 109.922C50.3336 108.862 66.2944 104.862 72.5166 90.6073C74.2772 86.5656 75.0556 81.7553 74.837 76.282C77.7853 74.0652 80.5712 71.6403 83.1735 69.026C91.3822 60.859 99.0188 48.9105 104.121 36.2402C109.202 23.6287 111.115 12.0314 109.374 4.43408ZM83.0851 47.3758C81.0675 49.3955 78.4961 50.7715 75.6964 51.3295C72.8966 51.8875 69.9943 51.6026 67.3565 50.5108C64.7187 49.419 62.464 47.5694 60.8776 45.1959C59.2913 42.8224 58.4445 40.0317 58.4445 37.1769C58.4445 34.3221 59.2913 31.5314 60.8776 29.1579C62.464 26.7845 64.7187 24.9348 67.3565 23.843C69.9943 22.7512 72.8966 22.4663 75.6964 23.0243C78.4961 23.5824 81.0675 24.9583 83.0851 26.978C84.4374 28.31 85.5113 29.8977 86.2443 31.6486C86.9774 33.3995 87.3549 35.2788 87.3549 37.1769C87.3549 39.0751 86.9774 40.9543 86.2443 42.7052C85.5113 44.4562 84.4374 46.0438 83.0851 47.3758Z" fill="white"/>
<path d="M31.8996 87.0368C30.9495 86.9189 29.989 87.152 29.1986 87.6924C27.6295 88.7655 26.0531 89.8262 24.4619 90.86C21.2428 92.9521 17.3926 89.2787 19.3054 85.949L22.2888 80.7925C22.7154 80.1685 22.9529 79.4348 22.9729 78.6792C22.9928 77.9237 22.7945 77.1784 22.4016 76.5328C22.0086 75.8871 21.4378 75.3685 20.7575 75.0392C20.0773 74.7098 19.3164 74.5836 18.5663 74.6758C15.255 75.0946 12.1772 76.6028 9.81734 78.9631C8.91863 79.8643 6.18566 82.5997 4.71481 93.0233C4.29618 96.0173 4.03227 99.031 3.92414 102.052C3.9107 102.577 4.00239 103.098 4.19381 103.587C4.38522 104.075 4.67248 104.52 5.03865 104.896C5.40482 105.271 5.84248 105.57 6.32583 105.773C6.80918 105.977 7.32842 106.082 7.85294 106.082H7.95116C10.9747 105.975 13.9907 105.712 16.9874 105.296C27.4159 103.823 30.1513 101.087 31.05 100.188C33.4211 97.8275 34.9257 94.7352 35.3202 91.4125C35.4464 90.3787 35.157 89.3371 34.5156 88.5166C33.8742 87.6961 32.9333 87.1638 31.8996 87.0368Z" fill="white"/>
</svg>
