<svg width="42" height="42" viewBox="0 0 42 42" fill="none" xmlns="http://www.w3.org/2000/svg">
<circle cx="21" cy="21" r="21" fill="white"/>
<path d="M12.7533 31.2929C12.3627 31.6834 11.7296 31.6834 11.339 31.2929L10.7071 30.661C10.3166 30.2704 10.3166 29.6373 10.7071 29.2467L22.3237 17.6302C22.9536 17.0002 22.5075 15.9231 21.6166 15.9231H12.4615C11.9093 15.9231 11.4615 15.4754 11.4615 14.9231V14C11.4615 13.4477 11.9093 13 12.4615 13H28C28.5523 13 29 13.4477 29 14V29.5385C29 30.0907 28.5523 30.5385 28 30.5385H27.0769C26.5246 30.5385 26.0769 30.0907 26.0769 29.5385V20.3834C26.0769 19.4925 24.9998 19.0464 24.3698 19.6763L12.7533 31.2929Z" fill="#FF741F"/>
</svg>
