<svg width="52" height="52" viewBox="0 0 52 52" fill="none" xmlns="http://www.w3.org/2000/svg">
<path d="M15.3636 0C6.89 0 0 6.89 0 15.3636V36.6364C0 45.11 6.89 52 15.3636 52H36.6364C45.11 52 52 45.11 52 36.6364V15.3636C52 6.89 45.11 0 36.6364 0H15.3636ZM40.1818 9.45455C41.4818 9.45455 42.5455 10.5182 42.5455 11.8182C42.5455 13.1182 41.4818 14.1818 40.1818 14.1818C38.8818 14.1818 37.8182 13.1182 37.8182 11.8182C37.8182 10.5182 38.8818 9.45455 40.1818 9.45455ZM26 13C33.1736 13 39 18.8264 39 26C39 33.1736 33.1736 39 26 39C18.8264 39 13 33.1736 13 26C13 18.8264 18.8264 13 26 13ZM26 15.3636C20.1382 15.3636 15.3636 20.1382 15.3636 26C15.3636 31.8618 20.1382 36.6364 26 36.6364C31.8618 36.6364 36.6364 31.8618 36.6364 26C36.6364 20.1382 31.8618 15.3636 26 15.3636Z" fill="white"/>
</svg>
