<svg width="52" height="52" viewBox="0 0 52 52" fill="none" xmlns="http://www.w3.org/2000/svg">
<path d="M26 0C11.6638 0 0 11.6627 0 26C0 40.3373 11.6638 52 26 52C40.3362 52 52 40.3373 52 26C52 11.6627 40.3362 0 26 0ZM18.087 37.3043H13.5652V20.3478H18.087V37.3043ZM15.8261 16.9565C14.577 16.9565 13.5652 15.9448 13.5652 14.6957C13.5652 13.4465 14.577 12.4348 15.8261 12.4348C17.0752 12.4348 18.087 13.4465 18.087 14.6957C18.087 15.9448 17.0752 16.9565 15.8261 16.9565ZM39.5652 37.3043H35.0435V31.6522V28.8261C35.0435 26.65 33.263 24.8696 31.087 24.8696C28.9109 24.8696 27.1304 26.65 27.1304 28.8261V37.3043H22.6087V20.3478H27.1304V22.4007C28.4508 21.1323 30.2414 20.3478 32.2174 20.3478C36.2757 20.3478 39.5652 23.6374 39.5652 27.6957V37.3043Z" fill="white"/>
</svg>
