<svg width="27" height="27" viewBox="0 0 27 27" fill="none" xmlns="http://www.w3.org/2000/svg">
<path d="M13.5 0C6.075 0 0 6.075 0 13.5C0 20.925 6.075 27 13.5 27C20.925 27 27 20.925 27 13.5C27 6.075 20.925 0 13.5 0ZM22.275 8.94375C22.95 8.94375 23.4563 9.45 24.1313 9.45C23.625 10.125 21.4312 10.125 20.7563 9.28125C21.2625 9.1125 21.6 8.94375 22.275 8.94375ZM1.6875 13.5C1.6875 12.825 1.6875 12.15 1.85625 11.3062C2.025 11.3062 2.19375 11.475 2.3625 11.475C2.3625 11.475 2.53125 11.6438 2.53125 11.8125C2.53125 12.3188 3.0375 12.6562 3.375 12.6562C4.725 12.825 5.23125 14.0063 6.4125 14.3438C6.75 14.5125 6.58125 14.85 6.4125 15.1875C5.4 16.5375 6.24375 17.55 7.0875 18.3937C7.93125 19.0687 7.93125 19.7437 8.1 20.7563C8.1 21.9375 8.26875 23.2875 8.775 24.4688C4.55625 22.4438 1.6875 18.3937 1.6875 13.5ZM13.5 25.3125C12.3188 25.3125 10.9688 25.1437 9.95625 24.8062C9.7875 24.4688 9.7875 24.1313 9.95625 23.7938C10.6313 22.4438 11.3062 21.2625 12.15 20.0812C12.4875 19.7437 12.825 19.4062 12.825 18.9C12.825 18.5625 12.9938 18.0562 13.1625 17.7188C13.6688 16.875 13.5 16.3688 12.825 16.2C11.475 15.8625 10.8 14.6812 9.7875 14.175C8.775 13.6687 7.7625 13.3312 6.91875 13.8375C6.58125 14.0062 6.075 14.175 6.075 13.6688C6.075 12.9938 5.23125 12.4875 5.4 11.8125C5.23125 11.8125 5.0625 11.8125 4.89375 11.9812C4.725 12.15 4.55625 12.3187 4.21875 12.15C3.88125 11.8125 4.05 11.475 4.05 11.1375C4.21875 10.8 4.3875 10.6312 4.725 10.4625C5.4 10.2937 6.075 10.2937 6.4125 11.1375C6.91875 9.61875 7.93125 8.775 8.94375 8.1C8.94375 8.1 10.2937 6.91875 10.4625 6.91875C10.6312 6.91875 10.8 7.25625 11.1375 7.425C11.475 7.425 11.6438 7.425 11.6438 7.0875C11.8125 6.24375 11.3063 5.23125 10.6313 5.0625C10.6313 4.89375 10.8 4.89375 10.8 4.89375C11.3063 4.725 11.9812 4.3875 11.8125 3.88125C11.8125 3.20625 11.1375 2.86875 10.4625 2.86875C10.125 2.86875 9.7875 2.86875 9.45 3.0375C8.775 3.375 7.93125 3.7125 6.91875 3.7125C8.775 2.3625 11.1375 1.6875 13.5 1.6875H14.85C13.8375 1.85625 12.825 2.19375 12.15 2.53125C13.1625 2.7 13.3312 3.20625 12.9937 4.05C12.825 4.3875 12.9938 4.725 13.3313 4.89375C13.6687 5.0625 14.0062 5.0625 14.175 4.725C14.5125 4.21875 15.1875 4.05 15.6938 3.88125C16.3687 3.7125 16.875 3.375 17.3813 2.7C17.3813 2.53125 17.55 2.53125 17.7188 2.3625C18.7313 2.7 19.7437 3.375 20.7563 4.05C20.5875 4.05 20.5875 4.21875 20.4188 4.21875C20.0813 4.55625 19.575 4.725 20.0812 5.4C20.25 5.7375 20.0813 5.90625 19.9125 6.075C19.575 6.24375 19.4062 6.075 19.2375 5.90625C19.0687 5.7375 19.0688 5.4 18.5625 5.4C18.3937 5.7375 17.8875 5.90625 17.8875 6.4125C18.7313 6.4125 18.5625 7.0875 18.7313 7.59375C17.7188 7.7625 17.3813 8.26875 17.8875 9.1125C18.0563 9.45 17.7188 9.61875 17.55 9.7875C16.875 10.8 16.2 11.475 16.2 12.6562C16.2 13.8375 17.0437 15.0188 18.3937 14.85C19.9125 14.6813 19.9125 14.6812 20.4188 16.0312C20.4188 16.2 20.5875 16.3687 20.5875 16.5375C20.7563 16.875 20.925 17.2125 20.7563 17.55C20.25 18.9 20.925 19.9125 21.4312 20.925C21.6 21.2625 21.7687 21.4312 21.9375 21.6C19.7437 23.9625 16.875 25.3125 13.5 25.3125Z" fill="#8D8D8D"/>
</svg>
