<svg width="108" height="108" viewBox="0 0 108 108" fill="none" xmlns="http://www.w3.org/2000/svg">
<path d="M22.68 34.7143C10.2157 34.7143 0 44.8987 0 57.3295C0 62.1463 1.53792 66.6229 4.1418 70.3024L19.913 97.566C22.1216 100.452 23.5904 99.9042 25.4275 97.4148L42.822 67.812C43.173 67.1748 43.4484 66.4987 43.6892 65.8075C44.7922 63.117 45.3597 60.2372 45.36 57.3295C45.36 44.8987 35.1475 34.7143 22.68 34.7143ZM22.68 45.3112C29.3933 45.3112 34.7328 50.6367 34.7328 57.3306C34.7328 64.0244 29.3922 69.3477 22.68 69.3477C15.9678 69.3477 10.6272 64.0233 10.6272 57.3306C10.6272 50.6378 15.9689 45.3112 22.68 45.3112ZM94.77 0.154297C87.4994 0.154297 81.54 6.09538 81.54 13.3476C81.54 16.1567 82.4364 18.7681 83.956 20.9141L93.1565 36.8181C94.4449 38.5008 95.3014 38.1811 96.3727 36.7296L106.519 19.4604C106.725 19.0899 106.885 18.6957 107.025 18.2918C107.67 16.7234 108.002 15.0436 108 13.3476C108 6.0943 102.043 0.154297 94.77 0.154297ZM94.77 6.33622C98.6861 6.33622 101.801 9.4423 101.801 13.3476C101.801 17.2529 98.6861 20.3568 94.77 20.3568C90.8539 20.3568 87.7392 17.2518 87.7392 13.3476C87.7392 9.44337 90.855 6.33622 94.77 6.33622Z" fill="white"/>
<path fill-rule="evenodd" clip-rule="evenodd" d="M95.2663 40.5596C92.8396 40.6136 90.4063 40.7162 87.9688 40.8965L88.3446 46.8711C90.6861 46.7014 93.0315 46.5922 95.3786 46.5439L95.2663 40.5596ZM82.3333 41.4452C78.5857 41.9106 74.8057 42.5738 71.0689 43.6397L72.4762 49.4296C75.8717 48.4619 79.3903 47.8366 82.964 47.3927L82.3333 41.4452ZM65.4734 45.6442C64.3538 46.1384 63.2697 46.7096 62.2291 47.3539L62.2248 47.3593L62.2183 47.3614C60.7333 48.2967 59.1684 49.4836 57.8908 51.2084C56.9652 52.4579 56.2081 54.038 56.031 55.9064L61.5336 56.5166C61.5746 56.0781 61.7993 55.4992 62.2032 54.9549H62.2054V54.9527C62.8566 54.0714 63.8329 53.2712 64.9939 52.5389L64.9982 52.5368C65.8264 52.0271 66.688 51.5739 67.5773 51.1803L65.4734 45.6442ZM62.6406 59.182L59.0734 63.7558C59.919 64.5291 60.8057 65.1231 61.6621 65.6199L61.6729 65.6253L61.6837 65.6318C64.5263 67.2485 67.4574 68.1611 70.1747 69.0273L71.7364 63.2838C69.0202 62.4177 66.4595 61.5818 64.2649 60.3354C63.6364 59.9704 63.0856 59.5892 62.6406 59.182ZM77.0424 64.8995L75.5174 70.6527L76.2389 70.8773L77.1245 71.1603C80.0556 72.1139 82.8636 73.1324 85.3735 74.5418L87.9202 69.2282C84.8854 67.5229 81.735 66.4083 78.6991 65.4212L78.6905 65.419L77.7811 65.1285L77.0424 64.8995ZM93.0987 73.2155L89.1859 77.4491C90.1104 78.4503 90.8027 79.6545 91.1396 80.8987L91.1418 80.9051L91.144 80.9148C91.5457 82.3674 91.5468 84.076 91.2325 85.8018L96.6584 86.9596C97.1012 84.5231 97.1725 81.848 96.4446 79.2074C95.8106 76.8724 94.601 74.8442 93.0987 73.2155ZM89.3382 89.409C88.7395 90.0397 88.0788 90.6085 87.3661 91.1068H87.364C85.42 92.4741 83.1649 93.5044 80.7695 94.39L82.5558 100.054C85.1759 99.0848 87.8661 97.8968 90.3804 96.1277L90.3869 96.1223L90.3901 96.1202C91.4224 95.3969 92.3775 94.5692 93.2402 93.6502L89.3382 89.409ZM75.687 95.9852C72.217 96.9183 68.6702 97.6289 65.0803 98.2316L65.927 104.149C69.6217 103.528 73.3315 102.786 77.0186 101.794L75.687 95.9852ZM59.6792 99.048C56.0656 99.5416 52.4324 99.9445 48.7885 100.288L49.2659 106.252C52.966 105.904 56.6725 105.495 60.3737 104.988L59.6792 99.048ZM43.3118 100.758C39.6604 101.047 36.0002 101.283 32.3369 101.481L32.6134 107.46C36.3124 107.26 40.0146 107.022 43.7158 106.728L43.3118 100.758ZM26.8321 101.751C24.6365 101.854 22.4354 101.938 20.229 102.016L20.4104 108C22.6307 107.924 24.8505 107.835 27.0697 107.734L26.8321 101.751Z" fill="white"/>
</svg>
