<svg width="110" height="110" viewBox="0 0 110 110" fill="none" xmlns="http://www.w3.org/2000/svg">
<path d="M55 110C69.5869 110 83.5764 104.205 93.8909 93.8909C104.205 83.5764 110 69.5869 110 55C110 40.4131 104.205 26.4236 93.8909 16.1091C83.5764 5.79463 69.5869 0 55 0C40.4131 0 26.4236 5.79463 16.1091 16.1091C5.79463 26.4236 0 40.4131 0 55C0 69.5869 5.79463 83.5764 16.1091 93.8909C26.4236 104.205 40.4131 110 55 110ZM35.2559 69.9316C39.1016 74.3789 45.6758 79.0625 55 79.0625C64.3242 79.0625 70.8984 74.3789 74.7441 69.9316C75.9902 68.4922 78.1602 68.3418 79.5996 69.5879C81.0391 70.834 81.1895 73.0039 79.9434 74.4434C75.1523 79.9434 66.8379 85.9375 55 85.9375C43.1621 85.9375 34.8477 79.9434 30.0566 74.4434C28.8105 73.0039 28.9609 70.834 30.4004 69.5879C31.8398 68.3418 34.0098 68.4922 35.2559 69.9316ZM31.0234 44.6875C31.0234 42.8641 31.7478 41.1155 33.0371 39.8261C34.3264 38.5368 36.0751 37.8125 37.8984 37.8125C39.7218 37.8125 41.4705 38.5368 42.7598 39.8261C44.0491 41.1155 44.7734 42.8641 44.7734 44.6875C44.7734 46.5109 44.0491 48.2595 42.7598 49.5489C41.4705 50.8382 39.7218 51.5625 37.8984 51.5625C36.0751 51.5625 34.3264 50.8382 33.0371 49.5489C31.7478 48.2595 31.0234 46.5109 31.0234 44.6875ZM72.2734 37.8125C74.0968 37.8125 75.8455 38.5368 77.1348 39.8261C78.4241 41.1155 79.1484 42.8641 79.1484 44.6875C79.1484 46.5109 78.4241 48.2595 77.1348 49.5489C75.8455 50.8382 74.0968 51.5625 72.2734 51.5625C70.4501 51.5625 68.7014 50.8382 67.4121 49.5489C66.1228 48.2595 65.3984 46.5109 65.3984 44.6875C65.3984 42.8641 66.1228 41.1155 67.4121 39.8261C68.7014 38.5368 70.4501 37.8125 72.2734 37.8125Z" fill="white"/>
</svg>
