<svg width="138" height="130" viewBox="0 0 138 130" fill="none" xmlns="http://www.w3.org/2000/svg">
<g clip-path="url(#clip0_1_1595)">
<path d="M84.0937 6.09925L85.1071 6.34841C85.2834 6.39281 85.4645 6.41465 85.6462 6.41341C86.1568 6.38963 86.6424 6.18435 87.0164 5.83418C87.3903 5.484 87.6283 5.01172 87.6879 4.50159C87.7475 3.99145 87.6248 3.47664 87.3417 3.04899C87.0585 2.62134 86.6334 2.30866 86.1421 2.16675L85.064 1.89591C84.5314 1.82282 83.9909 1.95224 83.5484 2.2588C83.1058 2.56535 82.7932 3.02693 82.6717 3.55307C82.5503 4.07921 82.6288 4.63196 82.8918 5.10297C83.1549 5.57398 83.5835 5.92929 84.0937 6.09925Z" fill="white"/>
<path d="M58.8764 5.10232H59.1999L60.278 4.95065C60.8499 4.87308 61.3677 4.57041 61.7174 4.10922C62.0672 3.64804 62.2204 3.06612 62.1432 2.49149C62.066 1.91685 61.7647 1.39657 61.3058 1.04509C60.8468 0.693618 60.2677 0.539744 59.6958 0.61732L58.6177 0.779819C58.0458 0.822917 57.5144 1.09252 57.1404 1.52933C56.7663 1.96613 56.5803 2.53435 56.6232 3.10899C56.666 3.68362 56.9344 4.2176 57.3691 4.59345C57.8038 4.96931 58.3692 5.15625 58.9411 5.11315L58.8764 5.10232Z" fill="white"/>
<path d="M50.4562 6.95487C50.6569 6.95385 50.8565 6.92468 51.0491 6.8682L52.0518 6.58653C52.5644 6.40852 52.9913 6.04297 53.2476 5.56274C53.5039 5.08252 53.5707 4.52288 53.4347 3.99537C53.2987 3.46786 52.9699 3.01121 52.5138 2.71644C52.0577 2.42167 51.5078 2.31042 50.9737 2.40487L49.8956 2.7082C49.3981 2.85396 48.9696 3.17481 48.6883 3.61206C48.4071 4.0493 48.2919 4.57369 48.3639 5.08928C48.4359 5.60486 48.6902 6.07715 49.0804 6.41974C49.4705 6.76232 49.9704 6.95229 50.4885 6.95487H50.4562Z" fill="white"/>
<path d="M67.4584 4.33333H68.5365C69.1084 4.33333 69.6568 4.10506 70.0612 3.69873C70.4656 3.2924 70.6927 2.7413 70.6927 2.16667C70.6927 1.59203 70.4656 1.04093 70.0612 0.634602C69.6568 0.228273 69.1084 0 68.5365 0H67.4584C66.8865 0 66.338 0.228273 65.9337 0.634602C65.5293 1.04093 65.3021 1.59203 65.3021 2.16667C65.3021 2.7413 65.5293 3.2924 65.9337 3.69873C66.338 4.10506 66.8865 4.33333 67.4584 4.33333Z" fill="white"/>
<path d="M75.846 4.69007L76.9241 4.80924H77.1829C77.466 4.82631 77.7498 4.78717 78.0179 4.69406C78.286 4.60094 78.5332 4.45568 78.7455 4.26656C78.9577 4.07744 79.1308 3.84816 79.2549 3.59182C79.3789 3.33548 79.4515 3.0571 79.4685 2.77257C79.4855 2.48804 79.4466 2.20293 79.3539 1.93353C79.2612 1.66412 79.1167 1.41569 78.9284 1.20243C78.7402 0.989163 78.5121 0.815237 78.2569 0.690579C78.0018 0.565921 77.7248 0.492974 77.4416 0.475902L76.3635 0.345902C75.7916 0.285566 75.2193 0.455973 74.7725 0.819638C74.3257 1.1833 74.0409 1.71043 73.9809 2.28507C73.9208 2.8597 74.0904 3.43477 74.4523 3.88377C74.8142 4.33276 75.3388 4.6189 75.9107 4.67924L75.846 4.69007Z" fill="white"/>
<path d="M113.904 22.544C114.316 22.9434 114.868 23.162 115.441 23.1519C116.013 23.1417 116.558 22.9036 116.955 22.4898C117.352 22.0761 117.57 21.5206 117.56 20.9457C117.55 20.3707 117.313 19.8234 116.901 19.424L116.093 18.6548C115.888 18.4485 115.645 18.2857 115.376 18.1761C115.108 18.0665 114.82 18.0123 114.531 18.0169C114.241 18.0214 113.955 18.0846 113.69 18.2025C113.425 18.3205 113.187 18.4909 112.989 18.7036C112.791 18.9162 112.638 19.1667 112.539 19.4401C112.439 19.7136 112.396 20.0043 112.411 20.295C112.426 20.5857 112.499 20.8704 112.626 21.1321C112.753 21.3938 112.931 21.6271 113.149 21.8182L113.904 22.544Z" fill="white"/>
<path d="M134.464 55.4993C134.185 55.549 133.918 55.6534 133.68 55.8067C133.441 55.9599 133.234 56.1589 133.072 56.3923C132.91 56.6257 132.795 56.889 132.734 57.167C132.673 57.445 132.668 57.7324 132.717 58.0127C132.775 58.3593 132.832 58.7204 132.89 59.096C132.97 59.6107 133.232 60.079 133.628 60.4153C134.024 60.7515 134.528 60.9331 135.046 60.9268H135.391C135.956 60.8363 136.462 60.5241 136.797 60.0588C137.133 59.5936 137.271 59.0134 137.181 58.446C137.123 58.0777 137.062 57.7165 136.997 57.3627C136.961 57.0694 136.866 56.7867 136.717 56.5319C136.568 56.2772 136.368 56.0557 136.131 55.8812C135.894 55.7066 135.623 55.5827 135.337 55.5171C135.05 55.4514 134.753 55.4454 134.464 55.4993Z" fill="white"/>
<path d="M130.733 49.8326C130.841 50.1685 130.938 50.5043 131.035 50.8401C131.198 51.3918 131.573 51.8558 132.076 52.13C132.58 52.4043 133.171 52.4664 133.72 52.3026C134.269 52.1389 134.731 51.7626 135.004 51.2568C135.277 50.7509 135.338 50.1568 135.175 49.6051C135.068 49.244 134.96 48.8829 134.852 48.5218C134.767 48.2501 134.63 47.9978 134.448 47.7794C134.266 47.5611 134.043 47.3808 133.791 47.249C133.54 47.1173 133.265 47.0365 132.983 47.0114C132.701 46.9863 132.416 47.0173 132.146 47.1026C131.875 47.188 131.624 47.326 131.407 47.5089C131.19 47.6917 131.01 47.9158 130.879 48.1683C130.748 48.4208 130.668 48.6968 130.643 48.9805C130.618 49.2642 130.649 49.5501 130.733 49.8218V49.8326Z" fill="white"/>
<path d="M127.736 42.0549L128.167 43.0082C128.399 43.534 128.829 43.9458 129.363 44.153C129.897 44.3603 130.49 44.3459 131.014 44.1132C131.537 43.8805 131.947 43.4484 132.153 42.9121C132.359 42.3757 132.345 41.779 132.113 41.2532L131.661 40.2349C131.418 39.7172 130.981 39.317 130.446 39.1216C129.911 38.9261 129.321 38.9513 128.804 39.1916C128.287 39.4319 127.886 39.8678 127.688 40.4043C127.49 40.9407 127.511 41.5341 127.747 42.0549H127.736Z" fill="white"/>
<path d="M106.734 16.4994L107.575 17.1169C108.036 17.429 108.598 17.5506 109.145 17.4565C109.693 17.3623 110.183 17.0595 110.514 16.6113C110.844 16.1631 110.99 15.6039 110.921 15.0503C110.851 14.4967 110.572 13.9913 110.141 13.6394L109.246 12.9786C108.781 12.6596 108.21 12.5361 107.656 12.6347C107.101 12.7332 106.607 13.0459 106.279 13.5058C105.95 13.9658 105.814 14.5365 105.9 15.0959C105.985 15.6553 106.284 16.1591 106.734 16.4994Z" fill="white"/>
<path d="M133.623 66.3326C133.623 66.6793 133.623 67.0404 133.623 67.4159C133.64 67.9792 133.874 68.5138 134.277 68.9061C134.679 69.2985 135.218 69.5178 135.779 69.5176H135.844C136.135 69.5179 136.424 69.4588 136.692 69.3439C136.96 69.2289 137.202 69.0605 137.404 68.8489C137.605 68.6373 137.762 68.3868 137.865 68.1125C137.967 67.8383 138.013 67.5461 138 67.2534C138 66.8851 138 66.5059 138 66.1701C137.988 65.8855 137.919 65.6061 137.799 65.348C137.679 65.0899 137.51 64.8581 137.301 64.6659C137.091 64.4737 136.846 64.3249 136.58 64.2279C136.313 64.131 136.03 64.0878 135.747 64.1009C135.461 64.1051 135.179 64.1664 134.916 64.2813C134.654 64.3961 134.417 64.5622 134.22 64.7699C134.022 64.9776 133.868 65.2227 133.765 65.491C133.663 65.7593 133.614 66.0454 133.623 66.3326Z" fill="white"/>
<path d="M34.7049 13.8342C35.0855 13.827 35.4575 13.7186 35.783 13.52L36.6563 13C37.1256 12.7002 37.4615 12.2298 37.5938 11.687C37.7261 11.1442 37.6446 10.5711 37.3663 10.0873C37.088 9.60344 36.6344 9.24639 36.1003 9.09068C35.5662 8.93498 34.9928 8.99267 34.5 9.2517L33.5405 9.81504C33.1358 10.0563 32.8207 10.424 32.6433 10.862C32.466 11.3 32.4361 11.7843 32.5583 12.241C32.6805 12.6976 32.948 13.1016 33.32 13.3912C33.692 13.6808 34.148 13.8402 34.6186 13.845L34.7049 13.8342Z" fill="white"/>
<path d="M119.521 28.7297C119.881 29.1807 120.405 29.4696 120.977 29.5325C121.549 29.5955 122.123 29.4275 122.572 29.0655C123.021 28.7035 123.308 28.1771 123.371 27.6021C123.434 27.0272 123.266 26.4507 122.906 25.9997L122.205 25.1438C122.028 24.9162 121.806 24.7266 121.554 24.5863C121.303 24.446 121.025 24.3578 120.739 24.3269C120.453 24.2959 120.163 24.323 119.888 24.4063C119.612 24.4897 119.355 24.6277 119.134 24.8122C118.912 24.9967 118.729 25.224 118.596 25.4806C118.463 25.7373 118.383 26.0181 118.36 26.3065C118.336 26.5949 118.371 26.885 118.461 27.1598C118.551 27.4346 118.695 27.6884 118.885 27.9063L119.521 28.7297Z" fill="white"/>
<path d="M124.297 35.5872C124.594 36.0785 125.074 36.431 125.63 36.5671C126.186 36.7032 126.773 36.6118 127.262 36.313C127.751 36.0142 128.102 35.5325 128.237 34.9738C128.373 34.4151 128.282 33.8252 127.984 33.3339L127.402 32.3805C127.267 32.1126 127.077 31.8759 126.846 31.6855C126.614 31.4951 126.346 31.3551 126.058 31.2746C125.769 31.194 125.468 31.1746 125.172 31.2175C124.876 31.2605 124.592 31.3649 124.338 31.524C124.084 31.6832 123.866 31.8937 123.698 32.1421C123.529 32.3905 123.414 32.6714 123.36 32.967C123.305 33.2625 123.312 33.5662 123.381 33.8588C123.45 34.1513 123.578 34.4264 123.758 34.6664L124.297 35.5872Z" fill="white"/>
<path d="M99.6187 12.0577L100.535 12.5669C100.782 12.7092 101.055 12.8011 101.337 12.8376C101.62 12.874 101.906 12.8542 102.181 12.7792C102.456 12.7043 102.713 12.5757 102.939 12.4008C103.164 12.2259 103.353 12.0081 103.495 11.7598C103.636 11.5116 103.728 11.2377 103.764 10.9539C103.8 10.6701 103.78 10.3819 103.706 10.1058C103.631 9.82966 103.503 9.57098 103.329 9.34455C103.155 9.11811 102.938 8.92834 102.691 8.78607L101.71 8.24441C101.207 7.97145 100.616 7.91056 100.069 8.07513C99.5206 8.23969 99.0601 8.61623 98.7885 9.12191C98.5169 9.62759 98.4563 10.221 98.62 10.7716C98.7838 11.3221 99.1585 11.7848 99.6618 12.0577H99.6187Z" fill="white"/>
<path d="M9.78932 38.0688C10.0356 38.2099 10.3072 38.3008 10.5885 38.3364C10.8698 38.3719 11.1553 38.3514 11.4286 38.2759C11.702 38.2004 11.9579 38.0715 12.1817 37.8966C12.4054 37.7216 12.5926 37.504 12.7326 37.2563L13.2501 36.3463C13.4276 36.1011 13.5518 35.8212 13.6149 35.5248C13.6779 35.2283 13.6784 34.9218 13.6162 34.6252C13.5539 34.3285 13.4305 34.0483 13.2537 33.8026C13.077 33.5569 12.8509 33.3512 12.59 33.1988C12.3292 33.0465 12.0394 32.9508 11.7395 32.918C11.4396 32.8852 11.1361 32.916 10.8488 33.0085C10.5614 33.1009 10.2966 33.2529 10.0714 33.4546C9.84617 33.6564 9.6656 33.9034 9.54135 34.1796L8.98072 35.1546C8.71061 35.6504 8.64398 36.2326 8.79504 36.777C8.9461 37.3214 9.3029 37.785 9.78932 38.0688Z" fill="white"/>
<path d="M6.27475 45.9876C6.53734 46.0954 6.81852 46.1501 7.10218 46.1486C7.38584 46.147 7.66641 46.0892 7.9278 45.9785C8.1892 45.8678 8.42629 45.7064 8.62549 45.5034C8.82469 45.3005 8.98209 45.0601 9.08866 44.7959L9.48757 43.8318C9.71346 43.3031 9.72109 42.7059 9.5088 42.1716C9.2965 41.6373 8.88166 41.2096 8.35554 40.9826C7.82941 40.7556 7.2351 40.7479 6.70335 40.9613C6.1716 41.1746 5.74596 41.5914 5.52007 42.1201L5.08882 43.2034C4.88545 43.7312 4.89568 44.318 5.1173 44.8383C5.33893 45.3586 5.75436 45.7711 6.27475 45.9876Z" fill="white"/>
<path d="M2.15625 71.4997C2.72812 71.4997 3.27657 71.2714 3.68095 70.8651C4.08532 70.4587 4.3125 69.9076 4.3125 69.333C4.3125 68.9791 4.3125 68.618 4.3125 68.2497C4.3125 67.675 4.08532 67.1239 3.68095 66.7176C3.27657 66.3113 2.72812 66.083 2.15625 66.083C1.58438 66.083 1.03593 66.3113 0.631551 66.7176C0.227176 67.1239 0 67.675 0 68.2497C0 68.618 0 68.9791 0 69.333C0 69.9076 0.227176 70.4587 0.631551 70.8651C1.03593 71.2714 1.58438 71.4997 2.15625 71.4997Z" fill="white"/>
<path d="M3.80576 54.2855C4.08115 54.3624 4.36901 54.3835 4.65259 54.3476C4.93617 54.3117 5.20981 54.2194 5.45761 54.0763C5.7054 53.9332 5.9224 53.7419 6.09598 53.5138C6.26956 53.2856 6.39627 53.025 6.46873 52.7472C6.55498 52.4077 6.64482 52.0719 6.73826 51.7397C6.87576 51.1921 6.79504 50.6122 6.5133 50.1235C6.23156 49.6349 5.77107 49.276 5.22992 49.1235C4.68877 48.971 4.10974 49.0368 3.61616 49.3069C3.12259 49.577 2.75348 50.0301 2.58748 50.5697C2.48685 50.9308 2.38982 51.2919 2.29639 51.653C2.15412 52.2031 2.23262 52.7872 2.51495 53.2796C2.79729 53.7721 3.26086 54.1333 3.80576 54.2855Z" fill="white"/>
<path d="M42.5105 5.28593L41.497 5.71926C40.9652 5.94768 40.5454 6.37903 40.3301 6.91843C40.1148 7.45784 40.1215 8.0611 40.3488 8.59551C40.5762 9.12992 41.0054 9.5517 41.5422 9.76807C42.0791 9.98444 42.6794 9.97768 43.2113 9.74926L44.1708 9.33759C44.6828 9.10592 45.0847 8.6827 45.2909 8.15792C45.4972 7.63314 45.4916 7.0482 45.2754 6.52749C45.0591 6.00679 44.6492 5.59139 44.1329 5.36965C43.6165 5.1479 43.0345 5.1373 42.5105 5.34009V5.28593Z" fill="white"/>
<path d="M95.8131 7.74637C95.9181 7.48178 95.9702 7.19898 95.9663 6.91415C95.9625 6.62931 95.9028 6.34804 95.7906 6.08642C95.6784 5.82481 95.516 5.58798 95.3127 5.38949C95.1094 5.19101 94.8691 5.03476 94.6056 4.9297L93.5274 4.51803C93.2627 4.41631 92.9806 4.36799 92.6972 4.37582C92.4139 4.38365 92.1349 4.44748 91.8761 4.56367C91.6173 4.67986 91.3838 4.84613 91.1889 5.05299C90.9941 5.25985 90.8417 5.50325 90.7405 5.76928C90.6393 6.03532 90.5912 6.31879 90.599 6.6035C90.6068 6.88821 90.6703 7.16859 90.7859 7.42863C90.9015 7.68868 91.067 7.92329 91.2729 8.11907C91.4787 8.31486 91.721 8.46798 91.9857 8.5697L92.9668 8.94887C93.2301 9.05441 93.5116 9.10674 93.795 9.10286C94.0785 9.09899 94.3584 9.03899 94.6188 8.92629C94.8791 8.8136 95.1148 8.65042 95.3124 8.44609C95.5099 8.24177 95.6654 8.00031 95.7699 7.73553L95.8131 7.74637Z" fill="white"/>
<path d="M2.42574 62.8332H2.70605C3.23252 62.8376 3.74242 62.6484 4.13963 62.3012C4.53683 61.954 4.79388 61.4727 4.8623 60.9482C4.8623 60.6015 4.94855 60.2548 5.00246 59.8648C5.08538 59.2902 4.93773 58.706 4.59199 58.2407C4.24625 57.7755 3.73074 57.4673 3.15886 57.384C2.58699 57.3007 2.0056 57.449 1.54259 57.7964C1.07958 58.1439 0.772878 58.6619 0.689956 59.2365C0.689956 59.6048 0.582144 59.9732 0.539019 60.3198C0.490282 60.6104 0.501046 60.9079 0.570654 61.1942C0.640261 61.4804 0.767249 61.7494 0.943851 61.9847C1.12045 62.2199 1.34296 62.4165 1.59776 62.5624C1.85255 62.7083 2.13429 62.8004 2.42574 62.8332Z" fill="white"/>
<path d="M27.6107 18.7532C28.0958 18.7534 28.5668 18.5893 28.9476 18.2873L29.767 17.6482C30.2216 17.2991 30.5196 16.7828 30.5955 16.2129C30.6713 15.643 30.5187 15.0662 30.1713 14.6094C29.8239 14.1526 29.3101 13.8531 28.743 13.7769C28.1758 13.7008 27.6018 13.8541 27.1472 14.2032L26.2631 14.8857C25.9113 15.1646 25.6548 15.5468 25.5291 15.979C25.4035 16.4112 25.415 16.872 25.562 17.2974C25.709 17.7228 25.9843 18.0915 26.3495 18.3524C26.7148 18.6133 27.1518 18.7534 27.6 18.7532H27.6107Z" fill="white"/>
<path d="M14.2853 30.6799C14.7415 31.0259 15.3156 31.1757 15.8817 31.0965C16.4477 31.0172 16.9593 30.7155 17.304 30.2574L17.9401 29.4233C18.1228 29.1994 18.259 28.941 18.3406 28.6634C18.4222 28.3857 18.4477 28.0945 18.4154 27.8068C18.3831 27.5191 18.2938 27.2408 18.1527 26.9884C18.0116 26.736 17.8216 26.5146 17.5939 26.3372C17.3662 26.1598 17.1055 26.0301 16.827 25.9556C16.5486 25.8812 16.2581 25.8636 15.9728 25.9039C15.6875 25.9441 15.4131 26.0414 15.1659 26.19C14.9186 26.3387 14.7035 26.5355 14.5332 26.7691L13.8648 27.6574C13.5239 28.1151 13.3768 28.6895 13.4556 29.2557C13.5343 29.8218 13.8326 30.3337 14.2853 30.6799Z" fill="white"/>
<path d="M21.2067 24.5485C21.4938 24.5487 21.778 24.4914 22.0428 24.3798C22.3075 24.2681 22.5474 24.1045 22.7484 23.8985L23.4923 23.151C23.7263 22.9611 23.9182 22.7241 24.0555 22.4552C24.1929 22.1863 24.2728 21.8916 24.2901 21.5898C24.3074 21.2881 24.2616 20.9861 24.1558 20.7031C24.0499 20.4202 23.8864 20.1627 23.6756 19.9471C23.4648 19.7315 23.2114 19.5626 22.9318 19.4512C22.6522 19.3399 22.3525 19.2885 22.0519 19.3005C21.7514 19.3125 21.4566 19.3875 21.1867 19.5208C20.9167 19.6541 20.6775 19.8426 20.4843 20.0743L19.7081 20.8652C19.4107 21.17 19.2096 21.5563 19.13 21.9755C19.0503 22.3948 19.0957 22.8284 19.2603 23.2218C19.425 23.6153 19.7017 23.9511 20.0556 24.1871C20.4096 24.4231 20.825 24.5489 21.2498 24.5485H21.2067Z" fill="white"/>
<path d="M12.9376 108.669C12.8662 107.956 13.0794 107.243 13.5306 106.687C13.9405 106.348 14.4554 106.164 14.986 106.167C15.5528 106.196 16.1083 106 16.5322 105.621C16.956 105.242 17.214 104.71 17.2501 104.141C17.2691 103.856 17.232 103.571 17.1408 103.3C17.0497 103.03 16.9064 102.781 16.7191 102.566C16.5317 102.352 16.3041 102.177 16.0493 102.051C15.7944 101.925 15.5174 101.851 15.234 101.833C13.532 101.765 11.87 102.363 10.5981 103.502C9.92496 104.174 9.40117 104.983 9.06113 105.873C8.72109 106.764 8.57248 107.717 8.62508 108.669V110.5C8.62508 111.075 8.85226 111.626 9.25663 112.032C9.66101 112.438 10.2095 112.667 10.7813 112.667C11.3532 112.667 11.9017 112.438 12.306 112.032C12.7104 111.626 12.9376 111.075 12.9376 110.5V108.669Z" fill="white"/>
<path d="M33.1631 93.3838C31.6979 95.1466 29.8551 96.5539 27.7725 97.5005H30.8344C35.2331 97.5005 38.8233 100.75 38.8233 104.683V125.667H4.3125V104.683C4.3125 100.75 7.89187 97.5005 12.3014 97.5005H15.3633C13.2807 96.5539 11.4379 95.1466 9.97266 93.3838C7.25512 93.792 4.76702 95.1476 2.94385 97.2132C1.12068 99.2789 0.0786015 101.923 0 104.683L0 127.704C0.0252728 128.335 0.297832 128.931 0.758276 129.361C1.21872 129.791 1.82972 130.021 2.45812 130H40.6669C41.2953 130.021 41.9063 129.791 42.3667 129.361C42.8272 128.931 43.0997 128.335 43.125 127.704V104.683C43.0468 101.925 42.0063 99.2818 40.1853 97.2163C38.3643 95.1509 35.8787 93.7943 33.1631 93.3838Z" fill="white"/>
<path d="M32.3438 83.6878C32.3438 81.5452 31.7114 79.4507 30.5268 77.6692C29.3421 75.8876 27.6583 74.4991 25.6883 73.6791C23.7183 72.8592 21.5505 72.6446 19.4592 73.0627C17.3678 73.4807 15.4468 74.5124 13.939 76.0275C12.4312 77.5426 11.4044 79.4729 10.9884 81.5744C10.5724 83.6758 10.7859 85.854 11.6019 87.8336C12.4179 89.8131 13.7998 91.505 15.5728 92.6954C17.3457 93.8858 19.4302 94.5212 21.5625 94.5212C24.4219 94.5212 27.1641 93.3798 29.186 91.3482C31.2079 89.3165 32.3438 86.561 32.3438 83.6878ZM15.0938 83.6878C15.0938 82.4023 15.4731 81.1455 16.1839 80.0766C16.8947 79.0077 17.905 78.1746 19.087 77.6826C20.269 77.1906 21.5697 77.0619 22.8245 77.3127C24.0793 77.5635 25.2319 78.1826 26.1366 79.0916C27.0413 80.0007 27.6574 81.1589 27.907 82.4197C28.1566 83.6806 28.0285 84.9875 27.5389 86.1753C27.0492 87.363 26.2201 88.3782 25.1564 89.0924C24.0926 89.8066 22.8419 90.1878 21.5625 90.1878C19.8469 90.1878 18.2015 89.503 16.9884 88.284C15.7753 87.065 15.0938 85.4117 15.0938 83.6878Z" fill="white"/>
<path d="M10.7812 121.333C11.9721 121.333 12.9375 120.363 12.9375 119.167C12.9375 117.97 11.9721 117 10.7812 117C9.59039 117 8.625 117.97 8.625 119.167C8.625 120.363 9.59039 121.333 10.7812 121.333Z" fill="white"/>
<path d="M107.813 108.669C107.741 107.956 107.954 107.243 108.406 106.687C108.815 106.347 109.33 106.163 109.861 106.167C110.433 106.198 110.994 106 111.42 105.616C111.847 105.232 112.104 104.694 112.136 104.119C112.167 103.545 111.97 102.981 111.588 102.552C111.206 102.124 110.67 101.865 110.098 101.833C108.396 101.765 106.734 102.363 105.462 103.502C104.791 104.175 104.269 104.984 103.931 105.875C103.593 106.765 103.446 107.718 103.5 108.669V110.5C103.5 111.075 103.727 111.626 104.132 112.032C104.536 112.438 105.084 112.667 105.656 112.667C106.228 112.667 106.777 112.438 107.181 112.032C107.585 111.626 107.813 111.075 107.813 110.5V108.669Z" fill="white"/>
<path d="M128.038 93.3838C126.573 95.1466 124.73 96.5539 122.648 97.5005H125.709C130.108 97.5005 133.698 100.75 133.698 104.683V125.667H99.1875V104.683C99.1875 100.75 102.767 97.5005 107.176 97.5005H110.238C108.155 96.5542 106.313 95.1469 104.848 93.3838C102.13 93.792 99.642 95.1476 97.8189 97.2132C95.9957 99.2789 94.9536 101.923 94.875 104.683V127.704C94.9003 128.335 95.1728 128.931 95.6333 129.361C96.0937 129.791 96.7047 130.021 97.3331 130H135.542C136.17 130.021 136.781 129.791 137.242 129.361C137.702 128.931 137.975 128.335 138 127.704V104.683C137.922 101.925 136.881 99.2818 135.06 97.2163C133.239 95.1509 130.754 93.7943 128.038 93.3838Z" fill="white"/>
<path d="M116.438 94.5212C118.57 94.5212 120.654 93.8858 122.427 92.6954C124.2 91.505 125.582 89.8131 126.398 87.8336C127.214 85.854 127.428 83.6758 127.012 81.5744C126.596 79.4729 125.569 77.5426 124.061 76.0275C122.553 74.5124 120.632 73.4807 118.541 73.0627C116.449 72.6446 114.282 72.8592 112.312 73.6791C110.342 74.4991 108.658 75.8876 107.473 77.6692C106.289 79.4507 105.656 81.5452 105.656 83.6878C105.656 86.561 106.792 89.3165 108.814 91.3482C110.836 93.3798 113.578 94.5212 116.438 94.5212ZM116.438 77.1878C117.717 77.1878 118.968 77.5691 120.031 78.2833C121.095 78.9975 121.924 80.0127 122.414 81.2004C122.903 82.3881 123.032 83.695 122.782 84.9559C122.532 86.2168 121.916 87.375 121.012 88.284C120.107 89.1931 118.954 89.8121 117.699 90.0629C116.445 90.3137 115.144 90.185 113.962 89.693C112.78 89.2011 111.77 88.368 111.059 87.299C110.348 86.2301 109.969 84.9734 109.969 83.6878C109.969 81.9639 110.65 80.3106 111.863 79.0916C113.077 77.8727 114.722 77.1878 116.438 77.1878Z" fill="white"/>
<path d="M105.656 121.333C106.847 121.333 107.812 120.363 107.812 119.167C107.812 117.97 106.847 117 105.656 117C104.465 117 103.5 117.97 103.5 119.167C103.5 120.363 104.465 121.333 105.656 121.333Z" fill="white"/>
<path d="M60.3752 45.8364C60.3038 45.1227 60.517 44.4097 60.9681 43.8539C61.3776 43.5144 61.8928 43.3304 62.4236 43.3339C62.9955 43.3655 63.5564 43.1675 63.983 42.7835C64.4097 42.3995 64.667 41.861 64.6984 41.2864C64.7299 40.7117 64.5329 40.1481 64.1508 39.7194C63.7686 39.2907 63.2327 39.0321 62.6608 39.0005C60.9586 38.9312 59.2963 39.5295 58.0249 40.6689C57.3537 41.3425 56.8319 42.1512 56.4937 43.0417C56.1556 43.9323 56.0087 44.8847 56.0627 45.8364V47.6672C56.0627 48.2418 56.2898 48.7929 56.6942 49.1993C57.0986 49.6056 57.647 49.8339 58.2189 49.8339C58.7908 49.8339 59.3392 49.6056 59.7436 49.1993C60.148 48.7929 60.3752 48.2418 60.3752 47.6672V45.8364Z" fill="white"/>
<path d="M81.3014 30.7012C80.1867 32.2731 78.7855 33.6185 77.1722 34.6662H78.2503C82.6706 34.6662 86.25 37.9162 86.25 41.8487V62.8328H51.75V41.8487C51.75 37.9162 55.3294 34.6662 59.7389 34.6662H60.817C59.2076 33.6174 57.8101 32.2721 56.6986 30.7012C54.1301 31.2378 51.8176 32.631 50.1364 34.6546C48.4552 36.6783 47.5041 39.2135 47.4375 41.8487V64.8695C47.4628 65.5008 47.7353 66.0964 48.1958 66.5266C48.6562 66.9568 49.2672 67.1867 49.8956 67.1662H88.1044C88.7328 67.1867 89.3438 66.9568 89.8042 66.5266C90.2647 66.0964 90.5372 65.5008 90.5625 64.8695V41.8487C90.4959 39.2135 89.5448 36.6783 87.8636 34.6546C86.1824 32.631 83.8699 31.2378 81.3014 30.7012Z" fill="white"/>
<path d="M79.7813 21.9378C79.7813 19.7952 79.1489 17.7007 77.9643 15.9192C76.7796 14.1376 75.0958 12.7491 73.1258 11.9291C71.1558 11.1092 68.988 10.8946 66.8967 11.3127C64.8053 11.7307 62.8843 12.7624 61.3765 14.2775C59.8687 15.7926 58.8419 17.7229 58.4259 19.8244C58.0099 21.9258 58.2234 24.104 59.0394 26.0836C59.8554 28.0631 61.2373 29.755 63.0103 30.9454C64.7832 32.1358 66.8677 32.7712 69 32.7712C71.8594 32.7712 74.6016 31.6298 76.6235 29.5982C78.6454 27.5665 79.7813 24.811 79.7813 21.9378ZM62.5313 21.9378C62.5313 20.6523 62.9106 19.3955 63.6214 18.3266C64.3322 17.2577 65.3425 16.4246 66.5245 15.9326C67.7065 15.4406 69.0072 15.3119 70.262 15.5627C71.5168 15.8135 72.6694 16.4326 73.5741 17.3416C74.4788 18.2507 75.0949 19.4089 75.3445 20.6697C75.5941 21.9306 75.466 23.2376 74.9763 24.4253C74.4867 25.613 73.6576 26.6282 72.5938 27.3424C71.5301 28.0566 70.2794 28.4378 69 28.4378C67.2844 28.4378 65.639 27.753 64.4259 26.534C63.2128 25.315 62.5313 23.6617 62.5313 21.9378Z" fill="white"/>
<path d="M58.2188 58.5003C59.4096 58.5003 60.375 57.5303 60.375 56.3337C60.375 55.137 59.4096 54.167 58.2188 54.167C57.0279 54.167 56.0625 55.137 56.0625 56.3337C56.0625 57.5303 57.0279 58.5003 58.2188 58.5003Z" fill="white"/>
<path d="M69 100.75C69.5719 100.75 70.1204 100.522 70.5247 100.115C70.9291 99.709 71.1563 99.1579 71.1563 98.5832V81.0549L72.5794 83.2757C72.7323 83.5155 72.9307 83.7226 73.1633 83.8852C73.3958 84.0479 73.658 84.1629 73.9348 84.2238C74.2116 84.2847 74.4977 84.2901 74.7766 84.2399C75.0555 84.1897 75.3219 84.0848 75.5604 83.9311C75.799 83.7775 76.0051 83.5781 76.167 83.3445C76.3289 83.1108 76.4434 82.8473 76.5039 82.5692C76.5645 82.291 76.57 82.0036 76.52 81.7234C76.47 81.4431 76.3656 81.1754 76.2127 80.9357L70.8221 72.4966C70.6271 72.1901 70.3585 71.938 70.041 71.7633C69.7235 71.5886 69.3674 71.4971 69.0054 71.4971C68.6435 71.4971 68.2873 71.5886 67.9699 71.7633C67.6524 71.938 67.3838 72.1901 67.1888 72.4966L61.7982 80.9357C61.6452 81.1754 61.5408 81.4431 61.4909 81.7234C61.4409 82.0036 61.4463 82.291 61.5069 82.5692C61.6292 83.1309 61.9686 83.6208 62.4504 83.9311C62.9322 84.2414 63.517 84.3467 64.076 84.2238C64.6351 84.1009 65.1226 83.7599 65.4314 83.2757L66.8438 81.0549V98.5832C66.8438 99.1579 67.071 99.709 67.4753 100.115C67.8797 100.522 68.4282 100.75 69 100.75Z" fill="white"/>
<path d="M89.1392 110.662L80.9346 105.419C80.4514 105.112 79.8664 105.01 79.3084 105.136C78.7504 105.262 78.265 105.605 77.959 106.091C77.6531 106.576 77.5516 107.164 77.677 107.725C77.8023 108.286 78.1442 108.773 78.6275 109.081L80.8592 110.5H57.1404L59.3614 109.081C59.6006 108.929 59.8077 108.73 59.9708 108.498C60.1339 108.265 60.2498 108.003 60.3119 107.725C60.3739 107.447 60.381 107.16 60.3326 106.88C60.2842 106.599 60.1813 106.331 60.0298 106.091C59.8783 105.85 59.6812 105.642 59.4496 105.478C59.2181 105.315 58.9567 105.198 58.6804 105.136C58.4041 105.073 58.1183 105.066 57.8392 105.115C57.5602 105.164 57.2934 105.267 57.0542 105.419L48.8496 110.662C48.4542 110.826 48.1159 111.103 47.8779 111.46C47.6398 111.817 47.5127 112.237 47.5127 112.667C47.5127 113.096 47.6398 113.516 47.8779 113.873C48.1159 114.23 48.4542 114.508 48.8496 114.671L57.0542 119.914C57.2934 120.066 57.5602 120.17 57.8392 120.218C58.1183 120.267 58.4041 120.26 58.6804 120.198C58.9567 120.135 59.2181 120.019 59.4496 119.855C59.6812 119.691 59.8783 119.483 60.0298 119.242C60.1813 119.002 60.2842 118.734 60.3326 118.454C60.381 118.173 60.3739 117.886 60.3119 117.608C60.2498 117.331 60.1339 117.068 59.9708 116.835C59.8077 116.603 59.6006 116.405 59.3614 116.252L57.1404 114.833H80.8592L78.6382 116.252C78.399 116.405 78.1919 116.603 78.0288 116.835C77.8657 117.068 77.7498 117.331 77.6877 117.608C77.6257 117.886 77.6186 118.173 77.667 118.454C77.7154 118.734 77.8183 119.002 77.9698 119.242C78.1213 119.483 78.3184 119.691 78.55 119.855C78.7815 120.019 79.0429 120.135 79.3192 120.198C79.5955 120.26 79.8813 120.267 80.1603 120.218C80.4394 120.17 80.7062 120.066 80.9454 119.914L89.15 114.671C89.5454 114.508 89.8837 114.23 90.1217 113.873C90.3598 113.516 90.4869 113.096 90.4869 112.667C90.4869 112.237 90.3598 111.817 90.1217 111.46C89.8837 111.103 89.5454 110.826 89.15 110.662H89.1392Z" fill="white"/>
</g>
<defs>
<clipPath id="clip0_1_1595">
<rect width="138" height="130" fill="white"/>
</clipPath>
</defs>
</svg>
