<svg width="152" height="131" viewBox="0 0 152 131" fill="none" xmlns="http://www.w3.org/2000/svg">
<g clip-path="url(#clip0_1_1658)">
<path d="M116.871 27.0674H139.445L111.63 -0.689453V21.837C111.63 24.7188 113.983 27.0674 116.871 27.0674Z" fill="white"/>
<path d="M104.678 21.837V-0.689453H76.912C82.2612 2.61781 86.5416 6.51775 89.4834 9.45339C93.44 13.5094 93.44 20.0218 89.4834 24.0771C83.2275 30.4279 70.3328 41.1044 54.5552 41.1044V56.2618C68.4107 61.3305 78.2506 74.6776 78.2506 90.2666C78.2506 95.1252 77.2898 99.9839 75.3629 104.412H129.124C134.792 104.412 139.45 99.8226 139.45 94.1613L139.444 34.0102H116.871C110.183 34.0102 104.678 28.5106 104.678 21.8421L104.678 21.837ZM120.937 91.9799H89.9647C88.0377 91.9799 86.4886 90.434 86.4886 88.5111C86.4886 86.5881 88.0377 85.0422 89.9647 85.0422H120.937C122.864 85.0422 124.413 86.5881 124.413 88.5111C124.413 90.434 122.864 91.9799 120.937 91.9799ZM120.937 73.6717H89.9647C88.0377 73.6717 86.4886 72.1257 86.4886 70.2028C86.4886 68.2798 88.0377 66.7339 89.9647 66.7339H120.937C122.864 66.7339 124.413 68.2798 124.413 70.2028C124.413 72.1257 122.864 73.6717 120.937 73.6717ZM124.413 51.8939C124.413 53.8169 122.864 55.3628 120.937 55.3628H73.0637C71.1367 55.3628 69.5876 53.8169 69.5876 51.8939C69.5876 49.971 71.1367 48.4251 73.0637 48.4251H120.937C122.864 48.4251 124.413 49.971 124.413 51.8939Z" fill="white"/>
<path d="M65.993 107.03C69.3342 102.274 71.3098 96.4942 71.3098 90.2567C71.3098 74.0913 58.1339 60.9375 41.9296 60.9375C25.7305 60.9375 12.5494 74.086 12.5494 90.2567C12.5494 106.422 25.7253 119.576 41.9296 119.576C48.1801 119.576 53.9719 117.599 58.738 114.265L71.7682 128.399C71.8761 128.517 71.9949 128.636 72.119 128.749C74.5318 130.963 78.2832 130.807 80.5017 128.399C82.7202 125.991 82.5636 122.248 80.1508 120.034L65.9872 107.031L65.993 107.03ZM41.93 111.684C30.0874 111.684 20.4579 102.069 20.4579 90.2567C20.4579 78.4387 30.0929 68.8237 41.93 68.8237C53.7726 68.8237 63.4021 78.4387 63.4021 90.2567C63.4021 102.075 53.7671 111.684 41.93 111.684Z" fill="white"/>
<path d="M41.9297 75.6056C33.8331 75.6056 27.2534 82.1771 27.2534 90.2514C27.2534 92.4275 29.0238 94.1944 31.2046 94.1944C33.3854 94.1944 35.1558 92.4277 35.1558 90.2514C35.1558 86.524 38.1947 83.4914 41.9298 83.4914C44.1105 83.4914 45.881 81.7247 45.881 79.5484C45.881 77.3722 44.1105 75.6056 41.9297 75.6056Z" fill="white"/>
<path d="M54.5654 34.1771C68.1785 34.1771 79.8209 23.9804 84.5384 19.1865C85.8717 17.8345 85.8717 15.6745 84.5384 14.3226C79.8208 9.5339 68.1777 -0.667969 54.5654 -0.667969C40.9523 -0.667969 29.3099 9.52866 24.5924 14.3226C23.2592 15.6746 23.2592 17.8346 24.5924 19.1865C29.3101 23.9806 40.9531 34.1771 54.5654 34.1771ZM54.5654 4.38491C61.4151 4.38491 66.9641 9.92221 66.9641 16.7578C66.9641 23.5932 61.4098 29.1307 54.5654 29.1307C47.7157 29.1307 42.1668 23.588 42.1668 16.7578C42.1668 9.92759 47.721 4.38491 54.5654 4.38491Z" fill="white"/>
<path d="M54.5652 24.083C58.6189 24.083 61.9062 20.8026 61.9062 16.7573C61.9062 12.712 58.6189 9.43164 54.5652 9.43164C54.1064 9.43164 53.6584 9.48012 53.2212 9.56092C53.5073 10.1427 53.68 10.789 53.68 11.4785C53.68 13.9078 51.7098 15.8739 49.2755 15.8739C48.5846 15.8739 47.9368 15.7015 47.3539 15.416C47.2729 15.8523 47.2244 16.2994 47.2244 16.7573C47.2244 20.8026 50.5115 24.083 54.5652 24.083Z" fill="white"/>
</g>
<defs>
<clipPath id="clip0_1_1658">
<rect width="152" height="131" fill="white"/>
</clipPath>
</defs>
</svg>
