<svg width="51" height="52" viewBox="0 0 51 52" fill="none" xmlns="http://www.w3.org/2000/svg">
<path d="M8.5 0C3.80557 0 0 3.88019 0 8.66667V43.3333C0 48.1198 3.80557 52 8.5 52H42.5C47.1944 52 51 48.1198 51 43.3333V8.66667C51 3.88019 47.1944 0 42.5 0H8.5ZM11.0329 11.1429H20.6713L27.5159 21.0597L35.8214 11.1429H38.8571L28.8867 23.045L41.1814 40.8571H31.5453L23.6027 29.3516L13.9643 40.8571H10.9286L22.2319 27.3663L11.0329 11.1429ZM15.6814 13.619L32.8118 38.381H36.5329L19.4025 13.619H15.6814Z" fill="white"/>
</svg>
