<svg width="68" height="52" viewBox="0 0 68 52" fill="none" xmlns="http://www.w3.org/2000/svg">
<path d="M66.1019 8.9375C65.4733 5.36377 62.4782 2.76123 59.0024 1.94873C53.801 0.8125 44.1747 0 33.7597 0C23.3507 0 13.5704 0.8125 8.36288 1.94873C4.89324 2.76123 1.89197 5.19873 1.26337 8.9375C0.628603 13 0 18.6875 0 26C0 33.3125 0.628603 39 1.41744 43.0625C2.0522 46.6362 5.04731 49.2388 8.51695 50.0513C14.0388 51.1875 23.5048 52 33.9199 52C44.335 52 53.801 51.1875 59.3228 50.0513C62.7925 49.2388 65.7876 46.8013 66.4223 43.0625C67.0509 39 67.8398 33.1475 68 26C67.6795 18.6875 66.8907 13 66.1019 8.9375ZM25.2427 37.375V14.625L44.489 26L25.2427 37.375Z" fill="white"/>
</svg>
